<svg width="31" height="25" viewBox="0 0 31 25" fill="none" xmlns="http://www.w3.org/2000/svg">
<path d="M12.3328 1.01065C11.6823 0.928217 11.0512 1.33102 10.8664 1.98106C10.6624 2.69821 11.0784 3.44491 11.7955 3.64888L24.7266 7.32817L25.0759 7.42757L24.7582 7.60364L1.70016 20.3836L1.53738 20.4887C1.00764 20.8869 0.839038 21.6251 1.1695 22.2212C1.53096 22.8733 2.35262 23.1089 3.00473 22.7475L26.0637 9.96704L26.3813 9.79102L26.2806 10.1398L22.5524 23.0468L22.5088 23.2534C22.4236 23.9035 22.8238 24.5362 23.473 24.7239C24.1893 24.9308 24.9377 24.518 25.1447 23.8017L29.8857 7.3964L29.8883 7.3874L29.889 7.38567C29.9042 7.33129 29.916 7.27597 29.9243 7.22005C29.9243 7.22028 29.9244 7.21982 29.9243 7.22005L29.9271 7.19993C29.9305 7.17498 29.9331 7.15019 29.9349 7.12705C29.9375 7.09402 29.9389 7.06047 29.9391 7.02585C29.9392 7.00475 29.9388 6.98398 29.9379 6.9648C29.9362 6.92285 29.9323 6.88004 29.9264 6.83672C29.9234 6.81514 29.9199 6.79393 29.9163 6.77475C29.9088 6.73509 29.8995 6.69491 29.8881 6.65444C29.8825 6.63497 29.8767 6.616 29.8706 6.59814C29.858 6.56041 29.8435 6.52218 29.8273 6.4851L29.7679 6.36509L12.3328 1.01065ZM12.3328 1.01065L12.5395 1.05338L28.9581 5.7231C29.0521 5.74984 29.1408 5.78583 29.2235 5.82976C29.2498 5.84478 29.2746 5.85907 29.2986 5.87388L29.3026 5.87623C29.3212 5.88694 29.3403 5.89935 29.3604 5.91338C29.3907 5.93538 29.4203 5.95787 29.4485 5.98112L29.4506 5.98285C29.4715 5.99944 29.491 6.0166 29.5107 6.03503C29.5356 6.05899 29.5609 6.08451 29.5848 6.11075L29.5863 6.11235C29.6024 6.12942 29.6173 6.14662 29.6322 6.1648C29.6549 6.19308 29.6771 6.22252 29.6979 6.25271L29.6991 6.2543C29.7144 6.27585 29.7289 6.29813 29.743 6.32142L12.3328 1.01065Z" fill="#0F172B"/>
<path d="M12.3328 1.01065C11.6823 0.928217 11.0512 1.33102 10.8664 1.98106C10.6624 2.69821 11.0784 3.44491 11.7955 3.64888L24.7266 7.32817L25.0759 7.42757L24.7582 7.60364L1.70016 20.3836L1.53738 20.4887C1.00764 20.8869 0.839038 21.6251 1.1695 22.2212C1.53096 22.8733 2.35262 23.1089 3.00473 22.7475L26.0637 9.96704L26.3813 9.79102L26.2806 10.1398L22.5524 23.0468L22.5088 23.2534C22.4236 23.9035 22.8238 24.5362 23.473 24.7239C24.1893 24.9308 24.9377 24.518 25.1447 23.8017L29.8857 7.3964L29.8883 7.3874L29.889 7.38567C29.9042 7.33129 29.916 7.27597 29.9243 7.22005M12.3328 1.01065L29.7679 6.36509L29.8273 6.4851C29.8435 6.52218 29.858 6.56041 29.8706 6.59814C29.8767 6.616 29.8825 6.63497 29.8881 6.65444C29.8995 6.69491 29.9088 6.73509 29.9163 6.77475C29.9199 6.79393 29.9234 6.81514 29.9264 6.83672C29.9323 6.88004 29.9362 6.92285 29.9379 6.9648C29.9388 6.98398 29.9392 7.00475 29.9391 7.02585C29.9389 7.06047 29.9375 7.09402 29.9349 7.12705C29.9331 7.15019 29.9305 7.17498 29.9271 7.19993L29.9243 7.22005M12.3328 1.01065L12.5395 1.05338L28.9581 5.7231C29.0521 5.74984 29.1408 5.78583 29.2235 5.82976C29.2498 5.84478 29.2746 5.85907 29.2986 5.87388L29.3026 5.87623C29.3212 5.88694 29.3403 5.89935 29.3604 5.91338C29.3907 5.93538 29.4203 5.95787 29.4485 5.98112L29.4506 5.98285C29.4715 5.99944 29.491 6.0166 29.5107 6.03503C29.5356 6.05899 29.5609 6.08451 29.5848 6.11075L29.5863 6.11235C29.6024 6.12942 29.6173 6.14662 29.6322 6.1648C29.6549 6.19308 29.6771 6.22252 29.6979 6.25271L29.6991 6.2543C29.7144 6.27585 29.7289 6.29813 29.743 6.32142L12.3328 1.01065ZM29.9243 7.22005C29.9244 7.21982 29.9243 7.22028 29.9243 7.22005Z" stroke="#0F172B" stroke-width="0.3"/>
</svg>
