<svg width="19" height="29" viewBox="0 0 19 29" fill="none" xmlns="http://www.w3.org/2000/svg">
<path fill-rule="evenodd" clip-rule="evenodd" d="M9.00126 0C9.26645 0 9.52085 0.105357 9.70835 0.292893C9.89595 0.48043 10.0013 0.734784 10.0013 1V24.586L16.2933 18.292C16.4811 18.1042 16.7358 17.9987 17.0013 17.9987C17.2669 17.9987 17.5215 18.1042 17.7093 18.292C17.8971 18.4798 18.0026 18.7344 18.0026 19C18.0026 19.2656 17.8971 19.5202 17.7093 19.708L9.70925 27.708C9.61635 27.8011 9.50605 27.875 9.38455 27.9254C9.26305 27.9758 9.13275 28.0018 9.00126 28.0018C8.86972 28.0018 8.73948 27.9758 8.61799 27.9254C8.4965 27.875 8.38615 27.8011 8.29326 27.708L0.293263 19.708C0.105493 19.5202 0 19.2656 0 19C0 18.7344 0.105493 18.4798 0.293263 18.292C0.481033 18.1042 0.735713 17.9987 1.00126 17.9987C1.26681 17.9987 1.52149 18.1042 1.70926 18.292L8.00126 24.586V1C8.00126 0.734784 8.10662 0.48043 8.29415 0.292893C8.48169 0.105357 8.73604 0 9.00126 0Z" fill="#0F172B"/>
</svg>
