<svg width="19" height="19" viewBox="0 0 19 19" fill="none" xmlns="http://www.w3.org/2000/svg">
<path d="M9.36631 6.24444C7.64601 6.24444 6.24211 7.64835 6.24211 9.36866C6.24211 11.0889 7.64601 12.4928 9.36631 12.4928C11.0866 12.4928 12.4905 11.0889 12.4905 9.36866C12.4905 7.64835 11.0866 6.24444 9.36631 6.24444ZM18.7366 9.36866C18.7366 8.07491 18.7484 6.79288 18.6757 5.50148C18.603 4.00148 18.2609 2.67023 17.164 1.57335C16.0648 0.47413 14.7359 0.13429 13.2359 0.0616342C11.9421 -0.0110218 10.6601 0.000697172 9.36871 0.000697172C8.07492 0.000697172 6.79289 -0.0110218 5.50148 0.0616342C4.00148 0.13429 2.67023 0.47648 1.57335 1.57335C0.474131 2.67257 0.134291 4.00148 0.0616352 5.50148C-0.0110218 6.79522 0.000697156 8.07726 0.000697156 9.36866C0.000697156 10.66 -0.0110218 11.9444 0.0616352 13.2358C0.134291 14.7358 0.476481 16.0671 1.57335 17.1639C2.67257 18.2631 4.00148 18.603 5.50148 18.6756C6.79523 18.7483 8.07726 18.7366 9.36871 18.7366C10.6624 18.7366 11.9444 18.7483 13.2359 18.6756C14.7359 18.603 16.0671 18.2608 17.164 17.1639C18.2632 16.0647 18.603 14.7358 18.6757 13.2358C18.7507 11.9444 18.7366 10.6624 18.7366 9.36866ZM9.36631 14.1757C6.70617 14.1757 4.55929 12.0288 4.55929 9.36866C4.55929 6.70851 6.70617 4.56163 9.36631 4.56163C12.0265 4.56163 14.1734 6.70851 14.1734 9.36866C14.1734 12.0288 12.0265 14.1757 9.36631 14.1757ZM14.3702 5.48741C13.7491 5.48741 13.2476 4.98585 13.2476 4.36476C13.2476 3.74366 13.7491 3.2421 14.3702 3.2421C14.9913 3.2421 15.4929 3.74366 15.4929 4.36476C15.4931 4.51224 15.4642 4.65831 15.4078 4.7946C15.3515 4.93089 15.2688 5.05472 15.1645 5.15901C15.0602 5.26329 14.9364 5.34598 14.8001 5.40233C14.6638 5.45869 14.5177 5.4876 14.3702 5.48741Z" fill="#0F172B"/>
</svg>
