<svg width="23" height="19" viewBox="0 0 23 19" fill="none" xmlns="http://www.w3.org/2000/svg">
<path d="M22.706 2.18952C21.871 2.55952 20.974 2.80952 20.031 2.92252C21.004 2.34031 21.732 1.42398 22.079 0.344523C21.1649 0.887503 20.1644 1.26971 19.121 1.47452C18.4194 0.725383 17.4901 0.228844 16.4773 0.0619922C15.4646 -0.10486 14.4251 0.0673102 13.5203 0.551773C12.6154 1.03623 11.8958 1.80588 11.4732 2.74122C11.0506 3.67656 10.9486 4.72527 11.183 5.72452C9.33068 5.63151 7.51863 5.15006 5.86443 4.31142C4.21022 3.47278 2.75084 2.29568 1.581 0.856523C1.181 1.54652 0.950997 2.34652 0.950997 3.19852C0.950557 3.96551 1.13944 4.72076 1.50088 5.39725C1.86233 6.07374 2.38516 6.65055 3.023 7.07652C2.28328 7.05298 1.55988 6.8531 0.912997 6.49352V6.55351C0.912927 7.62926 1.28504 8.67189 1.96619 9.50455C2.64734 10.3372 3.59557 10.9085 4.65 11.1216C3.96379 11.3073 3.24434 11.3346 2.546 11.2016C2.8435 12.1272 3.423 12.9366 4.20337 13.5165C4.98374 14.0964 5.92592 14.4177 6.898 14.4356C5.24784 15.731 3.20989 16.4337 1.112 16.4306C0.740377 16.4307 0.369077 16.409 0 16.3656C2.12948 17.7347 4.60834 18.4614 7.14 18.4586C15.71 18.4586 20.395 11.3606 20.395 5.20452C20.395 5.00452 20.39 4.80251 20.381 4.60251C21.2923 3.94349 22.0789 3.12741 22.704 2.19252L22.706 2.18952Z" fill="#0F172B"/>
</svg>
